External Loads File
version=1
nRows=62
nColumns=13
Range=5.000000e-03-10 seconds
endheader
time 	forceRightX 	forceRightY 	forceRightZ 	pointRightX 	pointRightY 	pointRightZ 	forceLeftX 	forceLeftY 	forceLeftZ 	pointLeftX 	pointLeftY 	pointLeftZ 		
0.005000 -35.524919 145.849840 -0.000000 0.378779 0.440034 -0.115417 -13.765115 204.913185 -0.000000 0.132686 0.230984 -0.354738
0.010000 -35.363403 145.945467 -0.000000 0.378763 0.440060 -0.115277 -14.200524 204.732784 -0.000000 0.132701 0.230967 -0.354739
0.015000 -35.223522 146.035061 -0.000000 0.378750 0.440099 -0.115284 -14.617154 204.571709 -0.000000 0.132724 0.230941 -0.354735
0.020000 -35.712141 145.958787 -0.000000 0.378731 0.440199 -0.115282 -15.779971 204.395642 -0.000000 0.132742 0.229332 -0.354731
0.025000 -35.031773 146.146526 -0.000000 0.378742 0.440276 -0.115452 -15.095515 204.430745 -0.000000 0.132282 0.230843 -0.355901
0.030000 -35.059432 146.140118 -0.000000 0.378721 0.440299 -0.115411 -15.147691 204.502548 -0.000000 0.132185 0.230874 -0.355572
0.035000 -35.226279 146.078760 -0.000000 0.378704 0.440341 -0.115421 -15.170992 204.661444 -0.000000 0.132199 0.230853 -0.355556
0.040000 -35.443776 145.984137 -0.000000 0.378680 0.440379 -0.115430 -15.122889 204.880332 -0.000000 0.132210 0.230824 -0.355546
0.045000 -35.683987 145.860814 -0.000000 0.378661 0.440419 -0.115430 -15.048092 205.117784 -0.000000 0.132222 0.230790 -0.355540
0.050000 -35.925014 145.716761 -0.000000 0.378636 0.440473 -0.115419 -14.993063 205.336065 -0.000000 0.132243 0.230753 -0.355545
0.055000 -36.129323 145.572150 -0.000000 0.378605 0.440503 -0.115416 -14.971070 205.512548 -0.000000 0.132266 0.230696 -0.355524
0.060000 -36.281477 145.447755 -0.000000 0.378577 0.440566 -0.115418 -15.000335 205.645365 -0.000000 0.132289 0.230639 -0.355532
0.065000 -36.353554 145.370953 -0.000000 0.378537 0.440615 -0.115420 -15.060081 205.751223 -0.000000 0.132314 0.230585 -0.355536
0.070000 -36.335783 145.365021 -0.000000 0.378512 0.440675 -0.115411 -15.153030 205.838773 -0.000000 0.132347 0.230542 -0.355537
0.075000 -36.231553 145.448006 -0.000000 0.378486 0.440746 -0.115409 -15.305307 205.893854 -0.000000 0.132381 0.230492 -0.355531
0.080000 -36.027422 145.635951 -0.000000 0.378446 0.440811 -0.115418 -15.509452 205.893984 -0.000000 0.132382 0.230443 -0.355570
0.085000 -35.759829 145.917267 -0.000000 0.378415 0.440897 -0.115419 -15.797009 205.823195 -0.000000 0.132411 0.230389 -0.355563
0.090000 -35.429218 146.270257 -0.000000 0.378380 0.440946 -0.115420 -16.111100 205.691049 -0.000000 0.132428 0.230339 -0.355586
0.095000 -35.119451 146.643943 -0.000000 0.378339 0.441013 -0.115403 -16.483299 205.517243 -0.000000 0.132507 0.230284 -0.355543
0.100000 -34.808520 147.018016 -0.000000 0.378304 0.441073 -0.115418 -16.782242 205.342852 -0.000000 0.132494 0.230228 -0.355613
0.105000 -34.578219 147.355331 -0.000000 0.378267 0.441130 -0.115412 -17.026921 205.196127 -0.000000 0.132563 0.230184 -0.355567
0.110000 -34.437276 147.637695 -0.000000 0.378231 0.441200 -0.115400 -17.149754 205.108605 -0.000000 0.132588 0.230115 -0.355573
0.115000 -34.408557 147.845522 -0.000000 0.378188 0.441255 -0.115389 -17.129220 205.103267 -0.000000 0.132637 0.230066 -0.355559
0.120000 -34.510708 147.970409 -0.000000 0.378143 0.441314 -0.115385 -16.987718 205.187148 -0.000000 0.132665 0.229999 -0.355561
0.125000 -34.736762 148.017203 -0.000000 0.378109 0.441391 -0.115381 -16.774815 205.342280 -0.000000 0.132700 0.229931 -0.355570
0.130000 -35.030083 147.992931 -0.000000 0.378081 0.441441 -0.115380 -16.517252 205.529952 -0.000000 0.132749 0.229887 -0.355549
0.135000 -35.362573 147.880898 -0.000000 0.378050 0.441509 -0.115385 -16.301288 205.697884 -0.000000 0.132788 0.229832 -0.355550
0.140000 -35.658810 147.680355 -0.000000 0.378004 0.441548 -0.115383 -16.146795 205.802650 -0.000000 0.132830 0.229775 -0.355557
0.145000 -35.851444 147.420773 -0.000000 0.377984 0.441585 -0.115376 -16.061660 205.811313 -0.000000 0.132862 0.229725 -0.355550
0.150000 -35.922803 147.142606 -0.000000 0.377947 0.441623 -0.115395 -16.072252 205.710397 -0.000000 0.132877 0.229668 -0.355553
0.155000 -35.863068 146.876981 -0.000000 0.377915 0.441665 -0.115371 -16.151818 205.519550 -0.000000 0.132909 0.229632 -0.355543
0.160000 -35.689282 146.630122 -0.000000 0.377894 0.441695 -0.115382 -16.261204 205.275688 -0.000000 0.132949 0.229588 -0.355546
0.165000 -35.443006 146.388484 -0.000000 0.377869 0.441732 -0.115402 -16.359747 205.017008 -0.000000 0.132965 0.229537 -0.355540
0.170000 -35.185882 146.123800 -0.000000 0.377845 0.441764 -0.115406 -16.409592 204.783191 -0.000000 0.132999 0.229485 -0.355530
0.175000 -34.948753 145.816743 -0.000000 0.377836 0.441786 -0.115402 -16.345047 204.617067 -0.000000 0.133013 0.229448 -0.355536
0.180000 -34.797456 145.455771 -0.000000 0.377808 0.441830 -0.115410 -16.208039 204.542730 -0.000000 0.133038 0.229403 -0.355541
0.185000 -34.705045 145.066932 -0.000000 0.377789 0.441868 -0.115405 -15.963656 204.568864 -0.000000 0.133056 0.229387 -0.355525
0.190000 -34.691020 144.672775 -0.000000 0.377776 0.441879 -0.115415 -15.669875 204.669173 -0.000000 0.133068 0.229326 -0.355531
0.195000 -34.743459 144.308941 -0.000000 0.377763 0.441902 -0.115400 -15.362646 204.797042 -0.000000 0.133089 0.229303 -0.355526
0.200000 -34.862059 144.004493 -0.000000 0.377733 0.441925 -0.115400 -15.111681 204.900690 -0.000000 0.133101 0.229274 -0.355527
0.205000 -35.019207 143.777142 -0.000000 0.377732 0.441948 -0.115410 -14.947808 204.946076 -0.000000 0.133119 0.229258 -0.355524
0.210000 -35.209811 143.621412 -0.000000 0.377710 0.441970 -0.115397 -14.921586 204.916899 -0.000000 0.133118 0.229239 -0.355522
0.215000 -35.400381 143.530188 -0.000000 0.377699 0.441974 -0.115407 -15.021836 204.816750 -0.000000 0.133140 0.229236 -0.355512
0.220000 -35.573975 143.489470 -0.000000 0.377691 0.441982 -0.115397 -15.234611 204.656198 -0.000000 0.133152 0.229215 -0.355506
0.225000 -35.682048 143.492650 -0.000000 0.377685 0.441984 -0.115398 -15.485918 204.453376 -0.000000 0.133148 0.229208 -0.355513
0.230000 -35.709127 143.523770 -0.000000 0.377681 0.441990 -0.115400 -15.744229 204.231631 -0.000000 0.133150 0.229208 -0.355512
0.235000 -35.649164 143.563878 -0.000000 0.377671 0.441998 -0.115408 -15.977970 204.022394 -0.000000 0.133146 0.229203 -0.355513
0.240000 -35.503165 143.596510 -0.000000 0.377676 0.441968 -0.115405 -16.134995 203.859124 -0.000000 0.133155 0.229208 -0.355507
0.245000 -35.343729 143.596849 -0.000000 0.377677 0.441980 -0.115404 -16.234646 203.760819 -0.000000 0.133144 0.229220 -0.355512
0.250000 -35.204004 143.565728 -0.000000 0.377687 0.441963 -0.115401 -16.248586 203.731519 -0.000000 0.133144 0.229226 -0.355513
0.255000 -35.112027 143.526181 -0.000000 0.377680 0.441948 -0.115401 -16.185958 203.759304 -0.000000 0.133135 0.229239 -0.355514
0.260000 -35.063704 143.523508 -0.000000 0.377695 0.441968 -0.115402 -16.047259 203.840910 -0.000000 0.133130 0.229264 -0.355519
0.265000 -35.013626 143.610170 -0.000000 0.377700 0.441932 -0.115403 -15.798161 203.984928 -0.000000 0.133098 0.229276 -0.355516
0.270000 -34.939936 143.812860 -0.000000 0.377711 0.441867 -0.115402 -15.464302 204.185413 -0.000000 0.133084 0.229312 -0.355526
0.275000 -34.848385 144.123259 -0.000000 0.377734 0.441840 -0.115406 -15.120523 204.417437 -0.000000 0.133059 0.229343 -0.355532
0.280000 -34.733234 144.511184 -0.000000 0.377746 0.441822 -0.115410 -14.807135 204.648929 -0.000000 0.133049 0.229397 -0.355526
0.285000 -34.592178 144.932031 -0.000000 0.377764 0.441795 -0.115411 -14.546207 204.843640 -0.000000 0.133010 0.229435 -0.355535
0.290000 -34.444989 145.335680 -0.000000 0.377784 0.441758 -0.115401 -14.375386 204.973835 -0.000000 0.133000 0.229466 -0.355531
0.295000 -34.265170 145.697638 -0.000000 0.377806 0.441731 -0.115389 -14.253544 205.044777 -0.000000 0.132956 0.229524 -0.355538
0.300000 -34.064142 146.006505 -0.000000 0.377837 0.441698 -0.115381 -14.181668 205.080991 -0.000000 0.132923 0.229568 -0.355544
0.305000 -33.838757 146.266492 -0.000000 0.377870 0.441658 -0.115377 -14.125256 205.109426 -0.000000 0.132895 0.229623 -0.355547
0.310000 -33.624692 146.468261 -0.000000 0.377902 0.441609 -0.115386 -14.078595 205.143204 -0.000000 0.132861 0.229674 -0.355545
